<?xml version="1.0" standalone="no"?>
<!DOCTYPE svg PUBLIC "-//W3C//DTD SVG 20010904//EN"
 "http://www.w3.org/TR/2001/REC-SVG-20010904/DTD/svg10.dtd">
<svg version="1.0" xmlns="http://www.w3.org/2000/svg"
 width="128.000000pt" height="128.000000pt" viewBox="0 0 128.000000 128.000000"
 preserveAspectRatio="xMidYMid meet">

<g transform="translate(0.000000,128.000000) scale(0.100000,-0.100000)"
fill="#000000" stroke="none">
<path d="M433 1261 c-144 -49 -221 -173 -210 -337 l5 -84 -27 6 c-14 3 -34 8
-44 11 -23 6 -47 -14 -47 -39 0 -10 7 -33 16 -50 15 -28 14 -31 -5 -49 -24
-22 -27 -65 -11 -147 12 -63 -5 -132 -56 -233 -19 -39 -33 -73 -31 -76 3 -2
36 27 74 65 51 51 77 87 99 136 l28 66 62 0 c34 0 75 3 91 6 28 5 29 4 31 -35
3 -39 1 -40 -35 -50 -21 -6 -57 -13 -81 -17 -23 -4 -54 -16 -68 -27 -24 -19
-26 -25 -21 -76 3 -31 11 -78 17 -106 6 -28 8 -90 5 -140 l-5 -90 34 70 c38
78 61 178 52 227 -5 33 -4 33 69 68 l75 36 24 -26 c20 -20 23 -29 14 -44 -12
-22 -4 -91 17 -143 19 -44 27 -37 49 38 8 30 24 63 34 72 17 16 19 15 35 -18
9 -20 20 -53 23 -75 4 -22 10 -43 15 -46 18 -11 53 80 53 142 1 55 3 62 30 80
50 33 68 79 63 162 -4 70 -3 72 17 66 12 -4 50 -10 85 -13 l64 -6 12 -42 c7
-23 24 -62 39 -85 31 -52 122 -155 130 -147 3 3 -10 41 -29 86 -22 49 -39 109
-45 155 -11 92 -26 127 -57 134 -13 4 -68 2 -121 -4 l-97 -10 112 5 c108 5
112 4 127 -18 8 -13 19 -58 24 -99 6 -41 19 -97 30 -125 11 -27 23 -59 27 -70
8 -20 8 -20 -14 0 -43 38 -92 114 -113 177 -11 35 -25 68 -31 73 -7 7 -8 6 -3
-2 5 -10 -5 -13 -41 -13 -68 0 -115 16 -147 49 l-27 28 37 42 c21 22 46 41 56
41 10 0 46 9 79 20 l61 21 39 -44 c24 -28 68 -60 116 -85 131 -67 137 -64 52
24 -88 91 -102 115 -124 210 -17 76 -38 114 -60 114 -11 0 -15 12 -15 44 0 24
-3 51 -6 60 -10 26 -49 19 -95 -17 l-43 -33 -39 57 c-82 124 -237 178 -374
130z m241 -26 c65 -31 119 -88 155 -164 34 -73 36 -190 3 -263 -32 -72 -86
-126 -126 -126 -44 0 -182 -21 -228 -34 -32 -9 -42 -8 -80 15 -180 105 -224
349 -90 498 97 108 235 136 366 74z m304 -156 c2 -34 -2 -52 -18 -72 -24 -31
-44 -36 -36 -9 3 9 1 24 -4 32 -7 12 -12 11 -29 -5 -24 -21 -27 -20 -36 16 -6
23 -1 30 41 58 63 41 78 38 82 -20z m-68 -89 c0 -19 -7 -33 -20 -40 -18 -10
-20 -8 -20 18 0 27 15 52 32 52 4 0 8 -13 8 -30z m121 -16 c10 -16 20 -44 24
-63 l7 -33 -30 22 c-35 26 -62 23 -124 -16 -22 -14 -41 -24 -43 -22 -2 2 0 18
3 36 5 25 20 41 66 72 33 22 64 39 70 37 6 -2 18 -17 27 -33z m-9 -77 c9 -7
33 -42 54 -77 21 -36 63 -91 95 -122 56 -57 56 -57 20 -42 -68 28 -116 62
-169 118 -55 58 -64 64 -59 44 2 -11 -120 -55 -128 -46 -3 2 1 18 7 35 8 22
30 42 72 67 65 39 82 42 108 23z m-819 -63 c24 -5 67 -50 67 -68 0 -4 -16 -4
-35 0 -38 7 -43 -2 -24 -37 9 -18 8 -19 -18 -13 -34 8 -50 27 -65 77 -10 32
-9 40 3 48 8 4 21 7 29 4 8 -2 27 -7 43 -11z m60 -88 c18 -7 42 -25 55 -39
l23 -25 -48 9 c-29 5 -55 17 -65 30 -33 40 -20 49 35 25z m13 -61 c115 -26
175 -52 153 -66 -21 -13 -64 -11 -156 7 -78 16 -84 16 -109 -1 -14 -9 -29 -27
-32 -39 -6 -20 -6 -20 -13 4 -20 72 1 140 40 125 9 -4 61 -17 117 -30z m483
-34 c39 -39 53 -144 27 -204 -7 -18 -28 -45 -45 -60 -31 -25 -33 -26 -57 -10
-18 11 -30 13 -46 6 -15 -6 -32 -6 -51 1 -22 9 -34 7 -56 -5 -36 -21 -53 -12
-86 45 -31 53 -31 64 -2 68 16 2 23 11 25 31 2 15 -1 27 -6 27 -5 0 -8 -10 -8
-22 1 -31 -28 -30 -32 0 -4 29 14 75 38 97 19 17 148 41 233 44 34 1 52 -4 66
-18z m-504 -32 c22 -6 71 -14 109 -18 l68 -6 -19 -24 c-17 -20 -31 -24 -97
-29 -54 -3 -80 -1 -85 7 -5 7 -19 -18 -35 -59 -20 -50 -45 -89 -84 -131 -30
-33 -57 -58 -59 -55 -2 2 10 32 27 66 17 34 38 94 45 134 18 92 24 106 49 116
28 12 35 12 81 -1z m174 -190 c15 -26 13 -28 -68 -66 -42 -20 -55 -23 -61 -12
-5 7 -8 -27 -8 -77 1 -69 -4 -102 -22 -149 -32 -85 -41 -90 -34 -17 5 43 1 89
-11 150 -19 94 -16 135 12 147 18 8 150 42 168 44 6 1 16 -9 24 -20z m163 -68
c-1 -7 1 -11 5 -9 4 2 21 10 37 18 27 14 30 13 53 -15 29 -33 28 -81 -2 -150
l-17 -40 -18 64 c-10 34 -25 70 -34 79 -14 14 -17 14 -36 -3 -11 -10 -29 -46
-39 -79 l-18 -61 -17 58 c-21 69 -14 109 22 137 28 22 69 23 64 1z"/>
<path d="M707 583 c-26 -26 12 -80 47 -67 21 8 30 42 16 59 -13 15 -51 20 -63
8z m58 -28 c0 -22 -31 -33 -47 -17 -17 17 -1 44 24 40 15 -2 23 -10 23 -23z"/>
<path d="M617 502 c-10 -10 -17 -25 -17 -34 0 -22 33 -48 61 -48 32 0 49 17
49 50 0 14 -5 31 -12 38 -18 18 -63 14 -81 -6z m77 -14 c15 -24 -3 -52 -37
-56 -33 -4 -53 28 -37 59 14 25 58 23 74 -3z"/>
<path d="M486 494 c-40 -40 7 -109 59 -86 32 15 41 47 21 77 -19 29 -57 33
-80 9z m68 -10 c21 -21 20 -37 -3 -58 -25 -23 -59 -13 -67 20 -12 46 37 72 70
38z"/>
</g>
</svg>
