<?xml version="1.0" encoding="UTF-8"?>
<!DOCTYPE svg PUBLIC "-//W3C//DTD SVG 1.1//EN" "http://www.w3.org/Graphics/SVG/1.1/DTD/svg11.dtd">
<svg xmlns="http://www.w3.org/2000/svg" version="1.1" width="128px" height="128px" viewBox="0 0 128.000000 128.000000" style="shape-rendering:geometricPrecision;  text-rendering:geometricPrecision; image-rendering:optimizeQuality; fill-rule:evenodd; clip-rule:evenodd" xmlns:xlink="http://www.w3.org/1999/xlink">
<g><path style="opacity:0.757" fill="#000000" d="M 59.5,-0.5 C 62.1667,-0.5 64.8333,-0.5 67.5,-0.5C 68.9676,2.27765 69.801,5.27765 70,8.5C 75.8792,2.47387 80.0458,3.30721 82.5,11C 82.3333,12.1667 82.1667,13.3333 82,14.5C 77.6513,18.6816 73.4846,23.0149 69.5,27.5C 77.7727,29.1801 79.606,33.5134 75,40.5C 73.3333,42.1667 71.6667,43.8333 70,45.5C 69.3333,47.8333 69.3333,50.1667 70,52.5C 71.7533,51.373 73.5866,50.373 75.5,49.5C 76.8667,45.3555 78.5334,41.3555 80.5,37.5C 85.0327,35.4413 88.5327,36.4413 91,40.5C 93.581,35.0934 95.581,29.4267 97,23.5C 100.171,18.5859 103.837,18.2525 108,22.5C 108.186,24.9005 108.686,27.2338 109.5,29.5C 116.73,26.5873 120.23,28.9206 120,36.5C 118.842,38.4909 117.342,40.1576 115.5,41.5C 121.76,43.4636 123.426,47.2969 120.5,53C 118.966,53.923 117.299,54.423 115.5,54.5C 109.481,53.1614 103.481,51.828 97.5,50.5C 99.151,54.2182 98.8177,57.7182 96.5,61C 91.9248,62.2466 87.4248,61.7466 83,59.5C 80.7497,60.7079 78.583,62.0413 76.5,63.5C 81.3232,67.6952 86.6565,68.0285 92.5,64.5C 96.4056,64.9056 98.4056,67.0723 98.5,71C 98.0566,72.825 97.7233,74.6583 97.5,76.5C 103.481,75.172 109.481,73.8386 115.5,72.5C 121.551,73.4777 123.385,76.8111 121,82.5C 119.22,83.5937 117.386,84.5937 115.5,85.5C 120.135,88.0952 121.301,91.7618 119,96.5C 116.104,98.745 112.937,99.0784 109.5,97.5C 109.766,104.739 106.433,107.906 99.5,107C 98.2986,106.097 97.4652,104.931 97,103.5C 95.581,97.5733 93.581,91.9066 91,86.5C 88.3893,90.4121 84.8893,91.4121 80.5,89.5C 78.5334,85.6445 76.8667,81.6445 75.5,77.5C 73.5866,76.627 71.7533,75.627 70,74.5C 69.3333,76.8333 69.3333,79.1667 70,81.5C 73.95,84.2655 76.45,87.9322 77.5,92.5C 77.6102,94.374 76.9436,95.874 75.5,97C 73.5,97.8333 71.5,98.6667 69.5,99.5C 73.4846,103.985 77.6513,108.318 82,112.5C 83.8241,119.328 81.3241,122.494 74.5,122C 72.714,121.215 71.214,120.049 70,118.5C 69.801,121.722 68.9676,124.722 67.5,127.5C 64.8333,127.5 62.1667,127.5 59.5,127.5C 58.0324,124.722 57.199,121.722 57,118.5C 51.1208,124.526 46.9542,123.693 44.5,116C 44.6667,114.833 44.8333,113.667 45,112.5C 49.3487,108.318 53.5154,103.985 57.5,99.5C 49.2273,97.8199 47.394,93.4866 52,86.5C 53.6667,84.8333 55.3333,83.1667 57,81.5C 57.6667,79.1667 57.6667,76.8333 57,74.5C 55.2467,75.627 53.4134,76.627 51.5,77.5C 50.1333,81.6445 48.4666,85.6445 46.5,89.5C 41.9673,91.5587 38.4673,90.5587 36,86.5C 33.419,91.9066 31.419,97.5733 30,103.5C 26.8295,108.414 23.1628,108.747 19,104.5C 18.8142,102.1 18.3142,99.7662 17.5,97.5C 10.2698,100.413 6.76981,98.0794 7,90.5C 8.15847,88.5091 9.65847,86.8424 11.5,85.5C 5.55159,83.7994 3.71825,80.1327 6,74.5C 10.6231,71.5776 14.7897,72.0776 18.5,76C 17.646,77.0217 16.646,77.8551 15.5,78.5C 13.4841,77.2941 11.4841,77.2941 9.5,78.5C 12.5721,80.2724 15.9054,81.439 19.5,82C 21.6576,83.3117 21.9909,84.9783 20.5,87C 17.3681,88.6349 14.3681,90.4682 11.5,92.5C 15.161,92.8625 18.4944,91.6959 21.5,89C 22.5,88.3333 23.5,88.3333 24.5,89C 24.4334,93.4665 24.4334,97.9665 24.5,102.5C 26.7989,96.6539 28.7989,90.6539 30.5,84.5C 33.5592,81.47 37.2258,79.8033 41.5,79.5C 41.2011,81.604 41.5344,83.604 42.5,85.5C 42.8333,85.3333 43.1667,85.1667 43.5,85C 44.5279,81.2213 45.8612,77.5546 47.5,74C 51.0066,71.746 54.6733,69.746 58.5,68C 59.635,67.2506 60.635,67.4173 61.5,68.5C 62.6143,73.4456 62.781,78.4456 62,83.5C 59.6884,86.646 57.1884,89.646 54.5,92.5C 56.7803,91.689 59.2803,91.689 62,92.5C 62.6667,95.8333 62.6667,99.1667 62,102.5C 57.4529,106.711 53.2862,111.211 49.5,116C 49.8499,117.257 50.5165,117.591 51.5,117C 60.1716,106.416 64.1716,108.25 63.5,122.5C 62.8284,108.25 66.8284,106.416 75.5,117C 76.4835,117.591 77.1501,117.257 77.5,116C 73.7138,111.211 69.5471,106.711 65,102.5C 64.3333,99.1667 64.3333,95.8333 65,92.5C 67.7197,91.689 70.2197,91.689 72.5,92.5C 69.8116,89.646 67.3116,86.646 65,83.5C 64.219,78.4456 64.3857,73.4456 65.5,68.5C 66.365,67.4173 67.365,67.2506 68.5,68C 72.3267,69.746 75.9934,71.746 79.5,74C 81.1388,77.5546 82.4721,81.2213 83.5,85C 83.8333,85.1667 84.1667,85.3333 84.5,85.5C 85.4656,83.604 85.7989,81.604 85.5,79.5C 89.7742,79.8033 93.4408,81.47 96.5,84.5C 98.2011,90.6539 100.201,96.6539 102.5,102.5C 102.567,97.9665 102.567,93.4665 102.5,89C 103.5,88.3333 104.5,88.3333 105.5,89C 108.506,91.6959 111.839,92.8625 115.5,92.5C 112.632,90.4682 109.632,88.6349 106.5,87C 105.253,85.5064 105.253,84.0064 106.5,82.5C 110.376,81.6189 114.042,80.2855 117.5,78.5C 116.667,78.1667 115.833,77.8333 115,77.5C 108.941,79.5275 102.774,80.6941 96.5,81C 93.3975,79.7193 90.7308,77.8859 88.5,75.5C 89.4209,73.244 91.0876,72.244 93.5,72.5C 93.719,71.325 93.3857,70.325 92.5,69.5C 88.5717,70.9846 84.5717,71.818 80.5,72C 75.6893,69.944 71.6893,66.944 68.5,63C 72.1262,59.8478 76.1262,57.1812 80.5,55C 84.5717,55.182 88.5717,56.0154 92.5,57.5C 93.3857,56.675 93.719,55.675 93.5,54.5C 91.0876,54.756 89.4209,53.756 88.5,51.5C 90.7308,49.1141 93.3975,47.2807 96.5,46C 102.774,46.3059 108.941,47.4725 115,49.5C 115.833,49.1667 116.667,48.8333 117.5,48.5C 114.428,46.7276 111.095,45.561 107.5,45C 105.342,43.6883 105.009,42.0217 106.5,40C 109.632,38.3651 112.632,36.5318 115.5,34.5C 111.839,34.1375 108.506,35.3041 105.5,38C 104.5,38.6667 103.5,38.6667 102.5,38C 102.567,33.5335 102.567,29.0335 102.5,24.5C 100.201,30.3461 98.2011,36.3461 96.5,42.5C 93.4408,45.53 89.7742,47.1967 85.5,47.5C 85.7989,45.396 85.4656,43.396 84.5,41.5C 84.1667,41.6667 83.8333,41.8333 83.5,42C 82.4721,45.7787 81.1388,49.4454 79.5,53C 75.9934,55.254 72.3267,57.254 68.5,59C 67.365,59.7494 66.365,59.5827 65.5,58.5C 64.3857,53.5544 64.219,48.5544 65,43.5C 67.3116,40.354 69.8116,37.354 72.5,34.5C 70.2197,35.311 67.7197,35.311 65,34.5C 64.3333,31.1667 64.3333,27.8333 65,24.5C 69.5471,20.2887 73.7138,15.7887 77.5,11C 77.1501,9.74254 76.4835,9.40921 75.5,10C 66.8284,20.5836 62.8284,18.7502 63.5,4.5C 64.1716,18.7502 60.1716,20.5836 51.5,10C 50.5165,9.40921 49.8499,9.74254 49.5,11C 53.2862,15.7887 57.4529,20.2887 62,24.5C 62.6667,27.8333 62.6667,31.1667 62,34.5C 59.2803,35.311 56.7803,35.311 54.5,34.5C 57.1884,37.354 59.6884,40.354 62,43.5C 62.781,48.5544 62.6143,53.5544 61.5,58.5C 60.635,59.5827 59.635,59.7494 58.5,59C 54.6733,57.254 51.0066,55.254 47.5,53C 45.8612,49.4454 44.5279,45.7787 43.5,42C 43.1667,41.8333 42.8333,41.6667 42.5,41.5C 41.5344,43.396 41.2011,45.396 41.5,47.5C 37.2258,47.1967 33.5592,45.53 30.5,42.5C 28.7989,36.3461 26.7989,30.3461 24.5,24.5C 24.4334,29.0335 24.4334,33.5335 24.5,38C 23.5,38.6667 22.5,38.6667 21.5,38C 18.4944,35.3041 15.161,34.1375 11.5,34.5C 14.3681,36.5318 17.3681,38.3651 20.5,40C 21.7472,41.4936 21.7472,42.9936 20.5,44.5C 16.6244,45.3811 12.9577,46.7145 9.5,48.5C 10.3333,48.8333 11.1667,49.1667 12,49.5C 18.0593,47.4725 24.226,46.3059 30.5,46C 33.6025,47.2807 36.2692,49.1141 38.5,51.5C 37.5791,53.756 35.9124,54.756 33.5,54.5C 33.281,55.675 33.6143,56.675 34.5,57.5C 38.4283,56.0154 42.4283,55.182 46.5,55C 51.0647,57.1086 55.0647,59.942 58.5,63.5C 55.0647,67.058 51.0647,69.8914 46.5,72C 42.4283,71.818 38.4283,70.9846 34.5,69.5C 33.6143,70.325 33.281,71.325 33.5,72.5C 36.5242,72.3642 38.0242,73.6975 38,76.5C 33.2628,81.3805 27.7628,82.5472 21.5,80C 19.9372,77.5237 20.6038,76.0237 23.5,75.5C 25.4534,76.1556 27.4534,76.4889 29.5,76.5C 27.849,72.7818 28.1823,69.2818 30.5,66C 35.0752,64.7534 39.5752,65.2534 44,67.5C 46.2503,66.2921 48.417,64.9587 50.5,63.5C 45.6768,59.3048 40.3435,58.9715 34.5,62.5C 30.5944,62.0944 28.5944,59.9277 28.5,56C 28.9434,54.175 29.2767,52.3417 29.5,50.5C 23.5191,51.828 17.5191,53.1614 11.5,54.5C 5.44856,53.5223 3.61523,50.1889 6,44.5C 7.78025,43.4063 9.61358,42.4063 11.5,41.5C 6.86539,38.9048 5.69873,35.2382 8,30.5C 10.8959,28.255 14.0626,27.9216 17.5,29.5C 17.2341,22.2606 20.5674,19.0939 27.5,20C 28.7014,20.9025 29.5348,22.0692 30,23.5C 31.419,29.4267 33.419,35.0934 36,40.5C 38.4673,36.4413 41.9673,35.4413 46.5,37.5C 48.4666,41.3555 50.1333,45.3555 51.5,49.5C 53.4134,50.373 55.2467,51.373 57,52.5C 57.6667,50.1667 57.6667,47.8333 57,45.5C 53.05,42.7345 50.55,39.0678 49.5,34.5C 49.3898,32.626 50.0564,31.126 51.5,30C 53.5,29.1667 55.5,28.3333 57.5,27.5C 53.5154,23.0149 49.3487,18.6816 45,14.5C 43.1759,7.67244 45.6759,4.50577 52.5,5C 54.286,5.78451 55.786,6.95118 57,8.5C 57.199,5.27765 58.0324,2.27765 59.5,-0.5 Z"/></g>
</svg>
