<?xml version="1.0" standalone="no"?>
<!DOCTYPE svg PUBLIC "-//W3C//DTD SVG 20010904//EN"
 "http://www.w3.org/TR/2001/REC-SVG-20010904/DTD/svg10.dtd">
<svg version="1.0" xmlns="http://www.w3.org/2000/svg"
 width="128.000000pt" height="128.000000pt" viewBox="0 0 128.000000 128.000000"
 preserveAspectRatio="xMidYMid meet">

<g transform="translate(0.000000,128.000000) scale(0.100000,-0.100000)"
fill="#000000" stroke="none">
<path d="M971 1103 c-51 -27 -92 -84 -98 -136 l-5 -44 -43 4 c-46 6 -85 -9
-85 -32 0 -9 11 -25 25 -37 29 -25 33 -56 9 -65 -23 -9 -44 23 -44 67 0 19 -7
46 -16 58 -15 22 -16 22 -45 5 -27 -16 -31 -16 -57 -1 -39 23 -52 11 -61 -56
-8 -62 -21 -82 -45 -73 -24 9 -19 40 9 67 74 69 -37 92 -175 37 -132 -54 -304
-187 -298 -231 4 -28 45 -32 105 -12 26 9 53 16 61 16 8 0 39 -25 69 -56 46
-49 57 -55 81 -50 72 17 110 18 139 2 33 -17 80 -71 107 -123 22 -44 39 -41
69 10 14 23 44 60 67 82 38 37 45 40 93 39 29 -1 66 -5 84 -9 29 -6 36 -3 86
49 30 31 61 56 69 56 8 0 35 -7 61 -16 105 -36 136 1 63 75 l-46 47 26 25 c35
31 64 95 64 139 0 51 -32 113 -75 146 -48 37 -141 45 -194 17z m156 -48 c105
-69 69 -235 -56 -252 -82 -11 -151 50 -151 135 0 57 25 97 75 123 45 22 91 20
132 -6z m-672 -192 c-21 -48 -17 -69 15 -96 17 -15 40 -27 49 -27 28 0 71 49
77 89 6 34 8 36 45 36 35 1 39 -1 39 -25 0 -36 35 -88 65 -96 31 -8 71 16 88
53 9 20 8 31 -5 54 -17 29 -17 29 8 29 17 0 39 -15 67 -46 52 -57 86 -75 151
-80 37 -2 56 -10 74 -28 l25 -25 -41 6 c-61 8 -92 -4 -138 -54 l-42 -45 -50
13 c-76 19 -123 2 -193 -71 l-56 -58 -31 40 c-64 83 -128 110 -208 88 l-45
-13 -42 46 c-47 50 -77 62 -140 54 l-42 -5 44 39 c53 47 131 93 203 119 70 25
92 25 83 3z"/>
<path d="M147 533 c-11 -11 -8 -191 3 -198 6 -4 17 -1 25 5 19 16 21 170 3
188 -14 14 -22 15 -31 5z"/>
<path d="M1092 528 c-19 -19 -16 -172 3 -188 28 -23 36 3 33 100 -3 92 -11
113 -36 88z"/>
<path d="M297 464 c-4 -4 -7 -45 -7 -91 0 -82 1 -84 23 -81 21 3 22 7 22 88 0
69 -3 85 -15 88 -9 1 -19 0 -23 -4z"/>
<path d="M447 464 c-11 -11 -8 -122 3 -129 6 -4 18 -1 26 6 21 17 16 123 -6
127 -9 1 -19 0 -23 -4z"/>
<path d="M787 464 c-14 -14 -7 -111 8 -124 25 -21 36 1 33 66 -2 44 -7 60 -18
62 -9 1 -19 0 -23 -4z"/>
<path d="M935 457 c-3 -7 -5 -47 -3 -88 3 -68 5 -74 26 -77 22 -3 23 -2 20 85
-3 74 -6 88 -21 91 -9 2 -20 -3 -22 -11z"/>
<path d="M445 270 c-4 -7 -3 -16 3 -22 14 -14 45 -2 40 15 -6 16 -34 21 -43 7z"/>
<path d="M787 274 c-10 -10 -8 -76 2 -93 5 -8 16 -11 26 -8 22 9 18 100 -5
105 -9 1 -19 0 -23 -4z"/>
<path d="M297 244 c-14 -14 -7 -65 9 -71 20 -8 35 14 32 47 -3 24 -27 38 -41
24z"/>
</g>
</svg>
