<?xml version="1.0" encoding="UTF-8"?>
<!DOCTYPE svg PUBLIC "-//W3C//DTD SVG 1.1//EN" "http://www.w3.org/Graphics/SVG/1.1/DTD/svg11.dtd">
<svg xmlns="http://www.w3.org/2000/svg" version="1.1" width="128px" height="128px" viewBox="0 0 128.000000 128.000000" style="shape-rendering:geometricPrecision; text-rendering:geometricPrecision; image-rendering:optimizeQuality; fill-rule:evenodd; clip-rule:evenodd" xmlns:xlink="http://www.w3.org/1999/xlink">
<g><path style="opacity:0.686" fill="#000000" d="M 15.5,2.5 C 17.1667,2.5 18.8333,2.5 20.5,2.5C 18.317,11.2959 21.6504,16.7959 30.5,19C 33.1168,19.8215 35.7835,20.3215 38.5,20.5C 37.9228,33.1732 42.5895,43.3399 52.5,51C 49.9445,55.454 48.9445,60.2874 49.5,65.5C 53.3046,67.0761 56.4713,66.4094 59,63.5C 60,61.5 61,59.5 62,57.5C 71.2332,49.6798 77.3999,40.0132 80.5,28.5C 90.5273,27.0302 100.527,27.1968 110.5,29C 117.544,31.2103 122.544,35.7103 125.5,42.5C 125.291,43.086 124.957,43.586 124.5,44C 116.051,43.9444 111.051,48.111 109.5,56.5C 97.5109,59.4473 90.8442,67.114 89.5,79.5C 84.8215,79.3342 80.1548,79.5008 75.5,80C 72.0482,80.8917 69.0482,82.5584 66.5,85C 67.717,86.6477 68.5503,88.481 69,90.5C 70.0918,96.7822 70.7585,103.116 71,109.5C 74.3334,116.948 79.8334,119.114 87.5,116C 88.9308,115.535 90.0975,114.701 91,113.5C 92.1312,106.542 95.9646,101.875 102.5,99.5C 103.856,111.987 98.5222,120.153 86.5,124C 75.2409,126.613 65.4075,124.113 57,116.5C 56.586,116.957 56.086,117.291 55.5,117.5C 52.9316,115.283 49.9316,114.116 46.5,114C 44.9637,110.76 45.297,107.76 47.5,105C 43.5824,103.918 41.2491,101.418 40.5,97.5C 41.0783,94.5117 42.0783,91.6783 43.5,89C 39.2911,85.0831 36.7911,80.2498 36,74.5C 33.3412,73.0654 30.5079,72.0654 27.5,71.5C 24.6397,75.272 21.3064,78.6053 17.5,81.5C 15.5406,81.1252 13.7073,80.4585 12,79.5C 11.0671,71.4302 12.4005,63.7635 16,56.5C 19.722,50.9272 22.222,51.2605 23.5,57.5C 24.552,57.3505 25.552,57.5172 26.5,58C 27.3333,59.5 28.5,60.6667 30,61.5C 25.6244,47.1158 16.791,36.2824 3.5,29C -0.246592,16.6598 3.75341,7.82646 15.5,2.5 Z M 15.5,7.5 C 17.7686,18.0046 24.4353,23.3379 35.5,23.5C 35.0866,29.037 35.9199,34.3703 38,39.5C 40.7971,43.9616 43.9638,48.1283 47.5,52C 45.505,56.2701 45.1716,60.6034 46.5,65C 46,65.5 45.5,66 45,66.5C 39.191,63.3262 36.0244,58.3262 35.5,51.5C 33.8561,51.2865 32.3561,51.6198 31,52.5C 25.4389,40.9387 17.1055,31.9387 6,25.5C 4.21378,16.7335 7.38045,10.7335 15.5,7.5 Z M 86.5,73.5 C 86.6495,74.552 86.4828,75.552 86,76.5C 80.4262,75.2982 74.9262,75.7982 69.5,78C 66.4875,79.6792 64.1541,82.0125 62.5,85C 64.3452,87.5276 65.5119,90.361 66,93.5C 66.6667,99.5 67.3333,105.5 68,111.5C 69.2433,114.576 71.0767,117.243 73.5,119.5C 65.4057,114.939 61.4057,108.105 61.5,99C 60.7801,96.8777 59.6134,96.3777 58,97.5C 56.9571,100.757 56.4571,104.09 56.5,107.5C 55.1266,107.657 53.7932,107.49 52.5,107C 53.5156,106.481 54.1822,105.647 54.5,104.5C 53.611,102.102 52.111,100.102 50,98.5C 48.5943,93.7312 50.4277,91.3978 55.5,91.5C 57.204,93.0413 59.0374,94.3746 61,95.5C 62.2798,95.3865 63.1131,94.7199 63.5,93.5C 60.4187,88.7512 56.2521,87.4179 51,89.5C 48.9205,87.8767 46.7538,86.3767 44.5,85C 42.7342,82.904 41.4009,80.5707 40.5,78C 41.448,77.5172 42.448,77.3505 43.5,77.5C 42.6943,73.7263 40.3609,71.2263 36.5,70C 32.2273,68.9695 27.894,68.3028 23.5,68C 25.3969,65.0334 28.0636,64.0334 31.5,65C 40.3926,69.2117 49.7259,70.545 59.5,69C 65.3939,60.05 71.8939,51.55 79,43.5C 81.3639,39.7814 82.8639,35.7814 83.5,31.5C 95.0947,29.1463 106.095,30.6463 116.5,36C 117.833,37.3333 119.167,38.6667 120.5,40C 112.676,41.1575 108.176,45.6575 107,53.5C 104.434,43.44 97.934,37.7733 87.5,36.5C 88.2458,35.2638 88.5792,33.9305 88.5,32.5C 87.1667,32.5 85.8333,32.5 84.5,32.5C 83.8639,36.7814 82.3639,40.7814 80,44.5C 75.4066,50.6829 70.5733,56.6829 65.5,62.5C 66.6197,64.5962 68.1197,64.9295 70,63.5C 77.2611,56.241 82.9277,47.9077 87,38.5C 90.7649,40.6569 94.5983,42.8235 98.5,45C 100.373,48.4399 102.706,51.4399 105.5,54C 95.5525,57.1125 89.2192,63.6125 86.5,73.5 Z M 21.5,63.5 C 22.5009,66.6711 22.5009,69.6711 21.5,72.5C 20.9953,73.9185 19.9953,74.5852 18.5,74.5C 18.5,73.5 18.5,72.5 18.5,71.5C 17.5,71.5 16.5,71.5 15.5,71.5C 15.3398,69.8008 15.5065,68.1341 16,66.5C 16.4828,67.448 16.6495,68.448 16.5,69.5C 17.5,69.5 18.5,69.5 19.5,69.5C 19.595,67.2143 20.2616,65.2143 21.5,63.5 Z M 18.5,74.5 C 17.2458,78.31 16.2458,78.31 15.5,74.5C 16.5,74.5 17.5,74.5 18.5,74.5 Z M 44.5,94.5 C 45.6206,96.3157 46.1206,98.3157 46,100.5C 44.6814,98.7505 44.1814,96.7505 44.5,94.5 Z M 97.5,106.5 C 98.818,109.598 97.9847,112.265 95,114.5C 94.9335,111.613 95.7668,108.946 97.5,106.5 Z M 61.5,114.5 C 59.2721,113.678 58.6054,112.345 59.5,110.5C 60.7051,111.577 61.3718,112.91 61.5,114.5 Z"/></g>
<g><path style="opacity:0.629" fill="#000000" d="M 11.5,13.5 C 16.1989,13.5573 16.6989,15.2239 13,18.5C 12.289,20.8991 12.4557,23.2324 13.5,25.5C 13.1667,26.5 12.5,27.1667 11.5,27.5C 9.85371,26.0978 8.85371,24.2644 8.5,22C 9.12264,18.9957 10.1226,16.1623 11.5,13.5 Z"/></g>
<g><path style="opacity:0.57" fill="#000000" d="M 43.5,18.5 C 44.5,18.5 45.5,18.5 46.5,18.5C 46.9492,20.9775 46.2825,22.9775 44.5,24.5C 42.261,22.8669 41.9277,20.8669 43.5,18.5 Z"/></g>
<g><path style="opacity:0.67" fill="#000000" d="M 20.5,22.5 C 24.5974,23.0725 28.5974,24.0725 32.5,25.5C 33.4287,26.6888 33.762,28.0222 33.5,29.5C 29.6243,28.0988 25.6243,27.0988 21.5,26.5C 17.6792,28.7523 15.6792,27.7523 15.5,23.5C 17.4147,23.7845 19.0813,23.4511 20.5,22.5 Z"/></g>
<g><path style="opacity:0.623" fill="#000000" d="M 43.5,28.5 C 44.8221,28.33 45.9887,28.6634 47,29.5C 47.8215,32.1168 48.3215,34.7835 48.5,37.5C 47.325,37.719 46.325,37.3857 45.5,36.5C 44.2147,33.9795 43.5481,31.3128 43.5,28.5 Z"/></g>
<g><path style="opacity:0.658" fill="#000000" d="M 49.5,38.5 C 52.5008,41.3316 55.6675,43.9983 59,46.5C 59.6987,48.0738 59.3654,49.4071 58,50.5C 54.7026,48.2046 51.7026,45.538 49,42.5C 48.4209,41.0715 48.5876,39.7382 49.5,38.5 Z"/></g>
<g><path style="opacity:0.662" fill="#000000" d="M 86.5,73.5 C 85.2921,74.2341 83.9587,74.5674 82.5,74.5C 82.9793,70.1456 83.6459,65.8123 84.5,61.5C 83.5737,57.8697 82.9071,54.203 82.5,50.5C 85.766,50.4326 87.266,52.0992 87,55.5C 87.5752,61.5219 87.4085,67.5219 86.5,73.5 Z"/></g>
<g><path style="opacity:0.636" fill="#000000" d="M 102.5,69.5 C 102.33,68.1779 102.663,67.0113 103.5,66C 107.366,63.0672 111.699,61.2339 116.5,60.5C 117.5,60.8333 118.167,61.5 118.5,62.5C 114.325,64.1833 110.325,66.3499 106.5,69C 105.207,69.49 103.873,69.6567 102.5,69.5 Z"/></g>
<g><path style="opacity:0.547" fill="#000000" d="M 102.5,69.5 C 103.244,72.9496 101.91,74.6162 98.5,74.5C 98.1966,71.4124 99.5299,69.7458 102.5,69.5 Z"/></g>
<g><path style="opacity:0.61" fill="#000000" d="M 95.5,77.5 C 96.5,77.5 97.5,77.5 98.5,77.5C 98.3215,80.2165 97.8215,82.8832 97,85.5C 96.2904,86.9733 95.1238,87.6399 93.5,87.5C 93.5465,84.0314 94.2132,80.698 95.5,77.5 Z"/></g>
</svg>
