<?xml version="1.0" standalone="no"?>
<!DOCTYPE svg PUBLIC "-//W3C//DTD SVG 20010904//EN"
 "http://www.w3.org/TR/2001/REC-SVG-20010904/DTD/svg10.dtd">
<svg version="1.0" xmlns="http://www.w3.org/2000/svg"
 width="128.000000pt" height="128.000000pt" viewBox="0 0 128.000000 128.000000"
 preserveAspectRatio="xMidYMid meet">

<g transform="translate(0.000000,128.000000) scale(0.100000,-0.100000)"
fill="#000000" stroke="none">
<path d="M608 1263 c-23 -27 -207 -306 -266 -404 -103 -171 -162 -321 -162
-409 0 -58 29 -160 60 -214 91 -160 290 -257 466 -228 262 43 439 294 379 537
-30 121 -130 302 -332 600 -91 135 -114 153 -145 118z m91 -196 c185 -278 279
-452 302 -553 29 -129 -37 -279 -156 -359 -223 -147 -518 -20 -567 244 -24
128 43 276 303 668 29 46 56 83 59 83 3 0 30 -37 59 -83z"/>
<path d="M870 471 c-5 -11 -10 -28 -10 -38 0 -35 -50 -120 -90 -152 -48 -38
-54 -75 -15 -93 21 -9 30 -7 62 15 21 15 51 43 67 63 54 68 83 183 54 212 -18
18 -56 14 -68 -7z"/>
</g>
</svg>
