<?xml version="1.0" encoding="UTF-8"?>
<!DOCTYPE svg PUBLIC "-//W3C//DTD SVG 1.1//EN" "http://www.w3.org/Graphics/SVG/1.1/DTD/svg11.dtd">
<svg xmlns="http://www.w3.org/2000/svg" version="1.1" width="128px" height="128px" viewBox="0 0 128.000000 128.000000" style="shape-rendering:geometricPrecision; text-rendering:geometricPrecision; image-rendering:optimizeQuality; fill-rule:evenodd; clip-rule:evenodd" xmlns:xlink="http://www.w3.org/1999/xlink">
<g><path style="opacity:0.85" fill="#000" d="M 127.5,7.5 C 127.5,7.83333 127.5,8.16667 127.5,8.5C 106.367,30.4687 85.3666,52.6354 64.5,75C 77.8333,75.3333 91.1667,75.6667 104.5,76C 91.5761,80.8636 78.5761,85.5303 65.5,90C 74.1641,91.6663 82.8307,93.333 91.5,95C 71.0862,102.347 50.0862,105.014 28.5,103C 22.8515,99.2127 19.0182,94.046 17,87.5C 16.3333,73.5 16.3333,59.5 17,45.5C 19.6667,48.8333 22.3333,52.1667 25,55.5C 27.5103,43.7927 30.1769,32.126 33,20.5C 35.2143,30.5799 37.5477,40.5799 40,50.5C 50.9462,34.5538 62.2795,18.8871 74,3.5C 69.3333,20.1667 64.6667,36.8333 60,53.5C 82.1247,37.5291 104.625,22.1958 127.5,7.5 Z M 53.5,44.5 C 51.4443,53.3352 48.7776,62.0018 45.5,70.5C 45.8333,70.8333 46.1667,71.1667 46.5,71.5C 56.1543,64.3929 65.821,58.0595 75.5,52.5C 66.1329,61.8656 57.1329,71.5323 48.5,81.5C 53.4671,82.329 58.4671,82.829 63.5,83C 55.0589,85.7215 46.7256,88.7215 38.5,92C 43.9709,93.8609 49.6376,95.1943 55.5,96C 29.7914,101.962 19.2914,91.7952 24,65.5C 25.2899,67.792 26.9565,69.792 29,71.5C 29.8547,66.7478 31.0214,62.0812 32.5,57.5C 33.6061,61.1349 34.6061,64.8016 35.5,68.5C 41.9091,60.7644 47.9091,52.7644 53.5,44.5 Z"/></g>
<g><path style="opacity:0.675" fill="#000001" d="M 98.5,6.5 C 101.68,6.17624 102.847,7.50957 102,10.5C 90.4773,20.6 79.1439,30.9333 68,41.5C 67.3333,40.8333 67.3333,40.1667 68,39.5C 75,31.1667 82,22.8333 89,14.5C 91.772,11.2166 94.9386,8.54988 98.5,6.5 Z"/></g>
<g><path style="opacity:0.625" fill="#000001" d="M 19.5,14.5 C 20.5,14.5 21.5,14.5 22.5,14.5C 23.1113,25.4988 23.2779,36.4988 23,47.5C 20.0856,36.6166 18.9189,25.6166 19.5,14.5 Z"/></g>
<g><path style="opacity:0.9" fill="#000001" d="M -0.5,106.5 C -0.5,102.167 -0.5,97.8333 -0.5,93.5C 2.08803,87.7434 6.25469,83.4101 12,80.5C 12.5035,87.0432 14.5035,93.0432 18,98.5C 19.1545,99.7433 20.4878,100.743 22,101.5C 22.4935,103.134 22.6602,104.801 22.5,106.5C 17.9917,106.856 13.6583,107.856 9.5,109.5C 9.66667,109.833 9.83333,110.167 10,110.5C 14.7488,109.695 19.5821,109.195 24.5,109C 25.0897,107.491 25.7564,105.991 26.5,104.5C 27.7946,105.098 29.1279,105.598 30.5,106C 35.258,106.212 39.9247,106.378 44.5,106.5C 40.498,119.977 31.498,125.477 17.5,123C 9.37324,119.702 3.37324,114.202 -0.5,106.5 Z"/></g>
<g><path style="opacity:0.647" fill="#000001" d="M 51.5,109.5 C 53.134,108.839 54.9674,108.506 57,108.5C 70.5031,109.27 84.0031,110.103 97.5,111C 98.7477,114.034 97.581,115.534 94,115.5C 79.8314,113.452 65.6648,111.452 51.5,109.5 Z"/></g>
</svg>
