<?xml version="1.0" standalone="no"?>
<!DOCTYPE svg PUBLIC "-//W3C//DTD SVG 20010904//EN"
 "http://www.w3.org/TR/2001/REC-SVG-20010904/DTD/svg10.dtd">
<svg version="1.0" xmlns="http://www.w3.org/2000/svg"
 width="128.000000pt" height="128.000000pt" viewBox="0 0 128.000000 128.000000"
 preserveAspectRatio="xMidYMid meet">

<g transform="translate(0.000000,128.000000) scale(0.100000,-0.100000)"
fill="#000000" stroke="none">
<path d="M622 1223 c2 -44 7 -58 18 -58 11 0 16 14 18 58 3 52 1 57 -18 57
-19 0 -21 -5 -18 -57z"/>
<path d="M520 1187 c0 -7 6 -21 13 -30 17 -23 41 -7 32 22 -7 23 -45 30 -45 8z"/>
<path d="M738 1174 c-10 -21 -9 -27 3 -35 15 -9 39 13 39 37 0 25 -31 24 -42
-2z"/>
<path d="M384 1179 c-3 -6 11 -28 32 -50 29 -30 41 -36 51 -27 11 9 7 18 -24
50 -39 40 -48 44 -59 27z"/>
<path d="M837 1152 c-31 -32 -35 -41 -24 -50 10 -9 22 -3 51 27 21 22 35 44
32 50 -11 17 -20 13 -59 -27z"/>
<path d="M590 1055 c-18 -42 -22 -45 -58 -45 -39 0 -72 -23 -72 -49 0 -8 16
-28 36 -46 35 -32 35 -33 23 -74 -11 -36 -10 -43 6 -61 22 -24 43 -25 73 -4
12 8 22 10 22 5 0 -6 9 -11 20 -11 11 0 20 5 20 11 0 5 10 3 22 -5 30 -21 51
-20 73 4 16 18 17 25 6 61 -12 41 -12 42 23 71 20 16 36 37 36 47 0 28 -33 51
-73 51 -33 0 -38 4 -56 45 -17 39 -24 45 -51 45 -27 0 -33 -6 -50 -45z m71
-22 c17 -55 27 -63 75 -63 24 0 44 -4 44 -9 0 -5 -16 -19 -35 -32 -38 -26 -41
-39 -24 -88 6 -18 9 -35 5 -38 -3 -3 -24 6 -47 21 l-40 27 -34 -25 c-42 -32
-60 -34 -51 -3 21 72 20 82 -18 108 -20 13 -36 27 -36 32 0 4 20 7 44 7 48 0
58 8 75 63 7 20 16 37 21 37 5 0 14 -17 21 -37z"/>
<path d="M366 1044 c-7 -19 -8 -17 22 -33 19 -10 23 -9 29 5 4 11 -1 22 -12
30 -24 18 -32 18 -39 -2z"/>
<path d="M888 1033 c-10 -2 -18 -14 -18 -25 0 -17 4 -19 27 -13 16 4 29 8 31
9 5 5 -10 36 -17 35 -3 -1 -14 -3 -23 -6z"/>
<path d="M282 923 c3 -15 14 -18 58 -18 44 0 55 3 58 18 3 15 -5 17 -58 17
-53 0 -61 -2 -58 -17z"/>
<path d="M882 923 c3 -15 14 -18 58 -18 44 0 55 3 58 18 3 15 -5 17 -58 17
-53 0 -61 -2 -58 -17z"/>
<path d="M373 840 c-30 -12 -20 -44 11 -36 11 3 24 6 28 6 3 0 4 9 1 20 -6 22
-8 23 -40 10z"/>
<path d="M863 814 c-10 -26 38 -47 53 -22 4 6 -1 17 -11 25 -24 17 -34 17 -42
-3z"/>
<path d="M416 731 c-36 -37 -41 -61 -12 -61 6 0 27 16 46 35 30 31 32 37 19
50 -13 13 -19 11 -53 -24z"/>
<path d="M812 757 c-17 -19 62 -97 80 -79 10 10 4 21 -28 53 -33 33 -43 38
-52 26z"/>
<path d="M620 735 c0 -8 9 -15 20 -15 11 0 20 7 20 15 0 8 -9 15 -20 15 -11 0
-20 -7 -20 -15z"/>
<path d="M510 680 c-12 -23 -6 -40 15 -40 16 0 29 35 20 50 -10 16 -23 12 -35
-10z"/>
<path d="M620 350 c0 -343 0 -350 20 -350 20 0 20 7 20 350 0 343 0 350 -20
350 -20 0 -20 -7 -20 -350z"/>
<path d="M716 682 c-6 -10 4 -52 13 -52 19 1 32 20 26 39 -6 21 -29 28 -39 13z"/>
</g>
</svg>
