<?xml version="1.0" encoding="UTF-8"?>
<!DOCTYPE svg PUBLIC "-//W3C//DTD SVG 1.1//EN" "http://www.w3.org/Graphics/SVG/1.1/DTD/svg11.dtd">
<svg xmlns="http://www.w3.org/2000/svg" version="1.1" width="128px" height="128px" style="shape-rendering:geometricPrecision; text-rendering:geometricPrecision; image-rendering:optimizeQuality; fill-rule:evenodd; clip-rule:evenodd" xmlns:xlink="http://www.w3.org/1999/xlink">
<g><path style="opacity:0.87" fill="#000000" d="M 71.5,-0.5 C 73.1667,-0.5 74.8333,-0.5 76.5,-0.5C 73.9434,7.61624 72.2767,15.9496 71.5,24.5C 71.1662,32.3543 73.8328,38.8543 79.5,44C 83.4214,44.9587 86.5881,43.792 89,40.5C 90.746,36.6733 92.746,33.0066 95,29.5C 105.662,41.1434 109.995,54.81 108,70.5C 110.333,67.5 112.667,64.5 115,61.5C 119.609,95.3117 105.776,117.312 73.5,127.5C 66.8333,127.5 60.1667,127.5 53.5,127.5C 24.5972,119.082 10.4305,99.7482 11,69.5C 11.7086,63.9988 13.042,58.6655 15,53.5C 18.4292,58.0189 22.0959,62.3522 26,66.5C 26.1965,48.5849 31.1965,32.2516 41,17.5C 49.1909,7.99376 59.3575,1.99376 71.5,-0.5 Z M 62.5,11.5 C 63.5862,11.62 64.2528,12.2867 64.5,13.5C 62.414,24.2358 63.5807,34.5692 68,44.5C 76.4012,55.6131 85.5678,56.2798 95.5,46.5C 101.553,58.7584 100.553,70.425 92.5,81.5C 97.215,83.4851 102.048,83.4851 107,81.5C 105.184,94.1238 99.0169,104.124 88.5,111.5C 90.0628,102.893 88.5628,94.5593 84,86.5C 81.9835,84.316 79.8169,82.316 77.5,80.5C 75.6385,81.5283 74.3052,83.0283 73.5,85C 72.5,85.6667 71.5,85.6667 70.5,85C 66.9132,80.6983 66.7466,76.1983 70,71.5C 71.8333,69 73.6667,66.5 75.5,64C 59.291,63.0175 47.791,69.8508 41,84.5C 38.3335,93.6154 37.5001,102.615 38.5,111.5C 25.3479,101.861 19.1812,88.8607 20,72.5C 24.6727,76.3355 29.6727,79.6688 35,82.5C 35.5,82.1667 36,81.8333 36.5,81.5C 32.5731,60.4074 36.4065,40.7407 48,22.5C 52.4502,18.2019 57.2835,14.5352 62.5,11.5 Z M 57.5,76.5 C 59.2652,79.3929 60.4319,82.7262 61,86.5C 64.4416,93.8975 69.775,95.8975 77,92.5C 83.3553,104.768 80.1886,113.602 67.5,119C 57.1664,120.583 50.3331,116.416 47,106.5C 45.4438,94.666 48.9438,84.666 57.5,76.5 Z"/></g>
</svg>
