<?xml version="1.0" standalone="no"?>
<!DOCTYPE svg PUBLIC "-//W3C//DTD SVG 20010904//EN"
 "http://www.w3.org/TR/2001/REC-SVG-20010904/DTD/svg10.dtd">
<svg version="1.0" xmlns="http://www.w3.org/2000/svg"
 width="128.000000pt" height="128.000000pt" viewBox="0 0 128.000000 128.000000"
 preserveAspectRatio="xMidYMid meet">

<g transform="translate(0.000000,128.000000) scale(0.100000,-0.100000)"
fill="#000000" stroke="none">
<path d="M502 1260 c-138 -37 -262 -131 -330 -251 -65 -114 -72 -171 -72 -558
0 -328 1 -348 20 -379 71 -116 230 -83 254 53 9 47 31 75 60 75 38 0 63 -26
69 -71 22 -167 248 -168 274 -3 7 49 29 74 63 74 35 0 56 -25 66 -75 24 -136
183 -169 254 -53 19 31 20 51 20 378 0 380 -5 422 -61 535 -109 223 -375 341
-617 275z m283 -80 c146 -50 257 -165 299 -309 13 -45 16 -115 16 -407 0 -386
0 -384 -59 -384 -35 0 -57 24 -64 72 -16 103 -123 153 -210 99 -35 -21 -56
-61 -71 -133 -11 -51 -101 -51 -111 0 -22 104 -69 155 -144 155 -72 0 -127
-48 -138 -121 -3 -20 -13 -45 -21 -54 -21 -25 -78 -24 -92 1 -6 13 -10 147
-10 369 0 288 3 358 16 403 41 141 147 253 289 306 81 30 217 31 300 3z"/>
<path d="M381 842 c-52 -26 -76 -65 -76 -122 0 -58 24 -97 78 -123 97 -48 216
46 190 151 -10 42 -43 83 -79 98 -44 18 -72 18 -113 -4z m101 -79 c38 -34 11
-103 -40 -103 -54 0 -81 62 -45 102 20 22 61 23 85 1z"/>
<path d="M784 846 c-35 -15 -68 -57 -77 -98 -26 -105 93 -199 190 -151 47 23
73 59 79 109 13 101 -99 182 -192 140z m98 -83 c22 -20 23 -61 1 -85 -34 -38
-103 -11 -103 40 0 54 62 81 102 45z"/>
</g>
</svg>
