<?xml version="1.0" standalone="no"?>
<!DOCTYPE svg PUBLIC "-//W3C//DTD SVG 20010904//EN"
 "http://www.w3.org/TR/2001/REC-SVG-20010904/DTD/svg10.dtd">
<svg version="1.0" xmlns="http://www.w3.org/2000/svg"
 width="128.000000pt" height="128.000000pt" viewBox="0 0 128.000000 128.000000"
 preserveAspectRatio="xMidYMid meet">

<g transform="translate(0.000000,128.000000) scale(0.100000,-0.100000)"
fill="#000000" stroke="none">
<path d="M614 1156 c-29 -45 -63 -236 -78 -446 -4 -47 -9 -102 -12 -123 l-6
-37 -72 67 c-83 77 -192 142 -302 179 -77 26 -124 28 -131 7 -2 -6 28 -46 66
-89 67 -73 183 -232 198 -270 5 -12 -5 -8 -33 14 -81 65 -229 111 -241 75 -3
-7 15 -34 39 -60 89 -98 152 -205 164 -281 l7 -42 -66 0 c-66 0 -89 -14 -64
-39 14 -14 1164 -16 1186 -2 8 5 11 16 8 25 -5 13 -24 16 -108 16 l-102 0 7
42 c12 76 75 183 164 281 24 26 42 53 39 60 -7 22 -81 12 -150 -20 -75 -36
-147 -98 -189 -162 -44 -69 -33 -35 25 80 59 120 136 230 237 342 38 43 70 82
70 88 0 45 -205 -12 -331 -93 -30 -19 -80 -56 -111 -81 -32 -26 -59 -47 -62
-47 -2 0 -7 42 -10 93 -9 108 -31 268 -50 350 -21 90 -60 121 -92 73z m60
-166 c9 -52 23 -168 32 -257 l15 -162 -31 -46 c-17 -25 -42 -69 -54 -98 l-23
-52 -23 45 c-23 45 -23 46 -11 205 20 267 55 503 71 474 4 -8 15 -57 24 -109z
m462 -212 c-173 -212 -277 -403 -292 -536 -9 -83 -13 -92 -36 -92 -20 0 -21 4
-15 64 3 36 18 98 32 138 33 91 35 111 13 116 -11 2 -23 -10 -37 -36 -27 -53
-61 -186 -61 -239 l0 -43 -38 0 -38 0 -12 74 c-10 67 -9 80 9 135 38 111 163
273 264 342 59 40 199 106 229 108 5 1 -3 -14 -18 -31z m-881 -86 c169 -87
289 -236 335 -418 34 -130 37 -125 -77 -122 l-98 3 -7 60 c-17 140 -111 324
-247 484 -41 48 -43 53 -21 46 14 -4 65 -28 115 -53z m-17 -297 c54 -49 105
-139 117 -207 l6 -38 -49 0 -49 0 -6 40 c-7 51 -66 177 -114 242 l-36 50 39
-20 c22 -11 63 -41 92 -67z m898 36 c-47 -64 -106 -190 -113 -241 l-6 -40 -49
0 -49 0 6 38 c12 68 63 158 117 207 42 37 109 82 126 85 2 0 -12 -22 -32 -49z"/>
<path d="M853 534 c-8 -22 18 -37 36 -20 7 8 10 19 7 25 -10 16 -36 13 -43 -5z"/>
<path d="M4 135 c-8 -19 12 -36 33 -28 19 7 12 37 -10 41 -9 2 -20 -4 -23 -13z"/>
</g>
</svg>
