<?xml version="1.0" encoding="UTF-8"?>
<!DOCTYPE svg PUBLIC "-//W3C//DTD SVG 1.1//EN" "http://www.w3.org/Graphics/SVG/1.1/DTD/svg11.dtd">
<svg xmlns="http://www.w3.org/2000/svg" version="1.1" width="128px" height="128px" viewBox="0 0 128.000000 128.000000" style="shape-rendering:geometricPrecision; text-rendering:geometricPrecision; image-rendering:optimizeQuality; fill-rule:evenodd; clip-rule:evenodd" xmlns:xlink="http://www.w3.org/1999/xlink">
<g><path style="opacity:0.735" fill="#000000" d="M 76.5,3.5 C 78.6348,3.14696 79.9681,3.98029 80.5,6C 76.0877,21.1499 71.7544,36.3166 67.5,51.5C 78.8187,52.3325 90.152,52.8325 101.5,53C 102.022,53.5613 102.355,54.228 102.5,55C 85.4895,78.5453 67.6561,101.379 49,123.5C 47.5,123.333 46.6667,122.5 46.5,121C 50.9123,105.85 55.2456,90.6834 59.5,75.5C 48.1813,74.6675 36.848,74.1675 25.5,74C 24.9781,73.4387 24.6448,72.772 24.5,72C 41.7156,49.0645 59.049,26.2312 76.5,3.5 Z M 71.5,18.5 C 69.1845,29.2837 66.3512,39.9504 63,50.5C 62.3333,52.5 62.3333,54.5 63,56.5C 73.4234,57.3211 83.9234,57.8211 94.5,58C 81.6364,75.0188 68.6364,91.8522 55.5,108.5C 58.0157,97.772 60.849,87.1053 64,76.5C 64.6667,74.5 64.6667,72.5 64,70.5C 53.5766,69.6789 43.0766,69.1789 32.5,69C 45.3636,51.9812 58.3636,35.1478 71.5,18.5 Z"/></g>
<g><path style="opacity:0.703" fill="#000000" d="M 37.5,17.5 C 38.8221,17.33 39.9887,17.6634 41,18.5C 44.2776,23.0515 46.4442,28.0515 47.5,33.5C 45.0194,33.6766 43.1861,32.6766 42,30.5C 40.5869,27.3388 38.9203,24.3388 37,21.5C 36.4209,20.0715 36.5876,18.7382 37.5,17.5 Z"/></g>
<g><path style="opacity:0.703" fill="#000000" d="M 86.5,17.5 C 89.6802,17.1762 90.8469,18.5096 90,21.5C 87.8333,25.1667 85.6667,28.8333 83.5,32.5C 82.3112,33.4287 80.9778,33.762 79.5,33.5C 80.7382,27.6901 83.0715,22.3567 86.5,17.5 Z"/></g>
<g><path style="opacity:0.663" fill="#000000" d="M 20.5,20.5 C 21.8734,20.3433 23.2068,20.51 24.5,21C 27,23.5 29.5,26 32,28.5C 32.8333,31.6667 31.6667,32.8333 28.5,32C 26,29.5 23.5,27 21,24.5C 20.51,23.2068 20.3433,21.8734 20.5,20.5 Z"/></g>
<g><path style="opacity:0.663" fill="#000000" d="M 102.5,20.5 C 103.833,20.5 105.167,20.5 106.5,20.5C 105.102,25.7493 101.935,29.7493 97,32.5C 94.8125,31.9407 94.1458,30.6073 95,28.5C 97.705,25.9638 100.205,23.2971 102.5,20.5 Z"/></g>
<g><path style="opacity:0.627" fill="#000000" d="M 34.5,32.5 C 38.0926,33.4298 39.7593,35.7632 39.5,39.5C 36.6755,39.9193 34.5088,38.9193 33,36.5C 32.7003,34.9343 33.2003,33.601 34.5,32.5 Z"/></g>
<g><path style="opacity:0.631" fill="#000000" d="M 90.5,32.5 C 95.2927,33.9296 95.626,36.0963 91.5,39C 90.2068,39.49 88.8734,39.6567 87.5,39.5C 87.1496,36.5466 88.1496,34.2133 90.5,32.5 Z"/></g>
<g><path style="opacity:0.705" fill="#000000" d="M 18.5,36.5 C 23.3812,38.2739 28.0479,40.6073 32.5,43.5C 33.4287,44.6888 33.762,46.0222 33.5,47.5C 28.0515,46.4442 23.0515,44.2776 18.5,41C 17.2721,39.5098 17.2721,38.0098 18.5,36.5 Z"/></g>
<g><path style="opacity:0.705" fill="#000000" d="M 105.5,36.5 C 109.161,36.3501 110.161,37.8501 108.5,41C 103.948,44.2776 98.9485,46.4442 93.5,47.5C 93.238,46.0222 93.5713,44.6888 94.5,43.5C 98.4005,41.3919 102.067,39.0585 105.5,36.5 Z"/></g>
<g><path style="opacity:0.707" fill="#000000" d="M 29.5,79.5 C 30.8333,79.5 32.1667,79.5 33.5,79.5C 33.762,80.9778 33.4287,82.3112 32.5,83.5C 28.3982,85.9671 24.2315,88.3004 20,90.5C 17.8125,89.9407 17.1458,88.6073 18,86.5C 21.8137,84.0155 25.6471,81.6822 29.5,79.5 Z"/></g>
<g><path style="opacity:0.705" fill="#000000" d="M 93.5,79.5 C 98.9485,80.5558 103.948,82.7224 108.5,86C 110.167,89.3333 109.167,90.6667 105.5,90C 101.833,87.8333 98.1667,85.6667 94.5,83.5C 93.5713,82.3112 93.238,80.9778 93.5,79.5 Z"/></g>
<g><path style="opacity:0.631" fill="#000000" d="M 35.5,87.5 C 36.8333,87.5 38.1667,87.5 39.5,87.5C 39.8804,90.7916 38.5471,93.1249 35.5,94.5C 34.1667,93.8333 33.1667,92.8333 32.5,91.5C 33.5244,90.1482 34.5244,88.8149 35.5,87.5 Z"/></g>
<g><path style="opacity:0.631" fill="#000000" d="M 87.5,87.5 C 91.3773,87.231 93.5439,88.8977 94,92.5C 91.724,95.0636 89.724,94.7303 88,91.5C 87.51,90.2068 87.3433,88.8734 87.5,87.5 Z"/></g>
<g><path style="opacity:0.703" fill="#000000" d="M 43.5,93.5 C 44.8333,93.5 46.1667,93.5 47.5,93.5C 46.4761,99.8856 43.6427,105.219 39,109.5C 37.5,109.333 36.6667,108.5 36.5,107C 38.9791,102.541 41.3125,98.0407 43.5,93.5 Z"/></g>
<g><path style="opacity:0.703" fill="#000000" d="M 79.5,93.5 C 81.9806,93.3234 83.8139,94.3234 85,96.5C 86.4131,99.6612 88.0797,102.661 90,105.5C 90.6667,109.167 89.3333,110.167 86,108.5C 82.7224,103.948 80.5558,98.9485 79.5,93.5 Z"/></g>
<g><path style="opacity:0.663" fill="#000000" d="M 28.5,94.5 C 29.8333,94.5 31.1667,94.5 32.5,94.5C 31.1021,99.7493 27.9354,103.749 23,106.5C 20.8125,105.941 20.1458,104.607 21,102.5C 23.705,99.9638 26.205,97.2971 28.5,94.5 Z"/></g>
<g><path style="opacity:0.671" fill="#000000" d="M 95.5,94.5 C 99.6424,96.1195 103.142,98.7862 106,102.5C 106.833,105.667 105.667,106.833 102.5,106C 100,103.5 97.5,101 95,98.5C 94.4209,97.0715 94.5876,95.7382 95.5,94.5 Z"/></g>
</svg>
