<?xml version="1.0" standalone="no"?>
<!DOCTYPE svg PUBLIC "-//W3C//DTD SVG 20010904//EN"
 "http://www.w3.org/TR/2001/REC-SVG-20010904/DTD/svg10.dtd">
<svg version="1.0" xmlns="http://www.w3.org/2000/svg"
 width="128.000000pt" height="128.000000pt" viewBox="0 0 128.000000 128.000000"
 preserveAspectRatio="xMidYMid meet">

<g transform="translate(0.000000,128.000000) scale(0.100000,-0.100000)"
fill="#000000" stroke="none">
<path d="M513 1186 c-209 -48 -388 -237 -423 -447 -48 -283 111 -541 390 -635
76 -26 244 -26 320 0 187 63 313 189 376 376 27 78 25 253 -2 329 -24 65 -46
83 -71 59 -16 -17 -16 -22 1 -88 14 -51 17 -95 14 -167 -3 -88 -7 -106 -41
-176 -49 -105 -129 -184 -234 -235 -77 -37 -79 -37 -203 -37 -124 0 -126 0
-203 37 -105 50 -185 130 -235 235 -37 77 -37 79 -37 203 0 124 0 126 37 203
26 54 56 97 97 138 41 41 84 71 138 97 l78 37 125 -2 c69 -1 141 -3 160 -5 33
-3 35 -1 35 26 0 25 -6 31 -40 43 -59 21 -208 25 -282 9z"/>
<path d="M1040 1039 c-36 -43 -73 -89 -83 -101 l-18 -21 -47 46 c-50 49 -71
57 -92 32 -18 -22 -4 -48 60 -109 55 -53 82 -65 105 -48 15 11 169 193 189
225 15 22 16 30 6 42 -26 31 -54 16 -120 -66z"/>
<path d="M545 841 c-171 -79 -166 -333 7 -405 48 -20 128 -20 176 0 176 73
176 335 0 408 -50 21 -134 20 -183 -3z m161 -72 c45 -21 84 -81 84 -129 0 -48
-39 -108 -84 -129 -23 -12 -53 -21 -66 -21 -48 0 -108 39 -129 84 -26 53 -26
79 0 132 14 30 32 48 62 63 53 26 80 26 133 0z"/>
</g>
</svg>
