<?xml version="1.0" standalone="no"?>
<!DOCTYPE svg PUBLIC "-//W3C//DTD SVG 20010904//EN"
 "http://www.w3.org/TR/2001/REC-SVG-20010904/DTD/svg10.dtd">
<svg version="1.0" xmlns="http://www.w3.org/2000/svg"
 width="128.000000pt" height="128.000000pt" viewBox="0 0 128.000000 128.000000"
 preserveAspectRatio="xMidYMid meet">

<g transform="translate(0.000000,128.000000) scale(0.100000,-0.100000)"
fill="#000000" stroke="none">
<path d="M194 1266 c-33 -15 -74 -60 -74 -82 0 -8 -15 -20 -33 -28 -42 -17
-74 -58 -83 -101 -19 -101 89 -190 187 -156 30 10 35 9 65 -20 31 -30 32 -34
20 -58 -24 -46 -37 -112 -38 -186 0 -59 6 -85 28 -135 l27 -61 -34 -35 c-33
-32 -37 -34 -68 -23 -98 34 -206 -55 -187 -156 8 -43 37 -78 81 -99 19 -9 35
-22 35 -28 0 -26 52 -78 90 -89 107 -32 208 76 171 182 -10 29 -9 35 10 55
l22 23 29 -24 c29 -24 33 -25 198 -25 165 0 169 1 198 25 l29 24 22 -23 c19
-20 20 -26 10 -55 -34 -98 55 -206 156 -187 43 8 78 37 99 81 9 19 22 35 28
35 26 0 78 52 89 90 32 107 -76 208 -182 171 -30 -10 -35 -9 -66 21 -18 17
-33 36 -33 42 0 5 9 29 21 53 22 46 20 73 -6 73 -20 0 -63 -88 -77 -156 -10
-49 -13 -54 -37 -54 -35 0 -52 -13 -70 -52 -10 -20 -25 -34 -39 -36 -20 -3
-22 1 -22 37 0 34 -3 41 -19 41 -21 0 -31 -19 -31 -56 0 -19 -5 -24 -25 -24
-22 0 -25 4 -25 40 0 33 -3 40 -20 40 -15 0 -21 -9 -26 -40 -5 -30 -11 -40
-25 -40 -13 0 -19 7 -19 24 0 37 -10 56 -31 56 -16 0 -19 -7 -19 -41 0 -36 -2
-40 -22 -37 -14 2 -29 16 -39 36 -18 40 -35 52 -71 52 -23 0 -27 5 -33 43 -4
23 -18 63 -31 89 -35 69 -44 120 -33 196 25 181 155 307 329 320 153 11 297
-75 347 -207 20 -54 33 -65 52 -46 12 12 12 20 -2 57 l-17 42 28 28 c25 26 31
27 61 17 106 -37 214 64 182 171 -11 38 -63 90 -89 90 -6 0 -19 16 -28 35 -21
44 -56 73 -99 81 -101 19 -190 -89 -156 -187 10 -30 9 -36 -12 -57 l-23 -23
-80 27 c-103 34 -211 31 -300 -10 l-58 -27 -28 29 c-26 25 -27 31 -17 61 23
66 -13 150 -77 177 -41 17 -70 17 -110 0z m109 -60 c38 -36 44 -73 19 -116
l-21 -37 42 -41 42 -42 -38 -37 -37 -38 -42 42 -41 42 -37 -21 c-26 -15 -44
-19 -64 -14 -39 10 -76 53 -76 88 0 35 38 76 79 84 22 5 30 13 35 35 8 41 49
79 84 79 17 0 40 -10 55 -24z m783 -1 c13 -13 27 -38 30 -54 5 -22 13 -30 35
-35 41 -8 79 -49 79 -84 0 -35 -37 -78 -76 -88 -20 -5 -39 -1 -64 14 l-37 21
-39 -40 -38 -39 -38 37 -38 37 40 41 40 40 -20 30 c-28 42 -25 77 9 114 37 39
81 42 117 6z m-768 -859 c6 -13 20 -27 31 -31 28 -9 27 -16 -13 -54 l-35 -34
21 -36 c15 -26 19 -45 14 -65 -10 -39 -53 -76 -88 -76 -35 0 -76 38 -84 79 -5
22 -13 30 -35 35 -77 15 -103 96 -48 147 36 34 69 37 114 9 l32 -20 33 35 c19
19 37 35 40 35 4 0 12 -11 18 -24z m702 -11 l33 -35 32 20 c18 11 44 20 58 20
36 0 87 -53 87 -91 0 -36 -38 -77 -79 -85 -22 -5 -30 -13 -35 -35 -8 -41 -49
-79 -85 -79 -38 0 -91 51 -91 87 0 14 9 40 20 58 l20 32 -35 33 c-41 39 -42
46 -14 55 11 4 25 18 31 31 6 13 14 24 18 24 3 0 21 -16 40 -35z"/>
<path d="M410 764 c-54 -22 -69 -100 -30 -154 39 -54 135 -64 177 -17 49 53
56 101 20 142 -19 23 -32 28 -87 31 -36 2 -72 1 -80 -2z m121 -54 c26 -15 24
-46 -6 -75 -29 -30 -68 -32 -95 -5 -22 22 -27 76 -7 83 22 9 88 7 108 -3z"/>
<path d="M729 759 c-69 -26 -61 -134 14 -179 38 -24 66 -25 112 -6 54 23 83
104 55 156 -19 35 -119 51 -181 29z m125 -45 c23 -9 20 -60 -4 -84 -27 -27
-66 -25 -95 5 -27 26 -32 54 -13 73 13 13 85 16 112 6z"/>
<path d="M1002 658 c2 -13 10 -23 18 -23 8 0 16 10 18 23 3 17 -2 22 -18 22
-16 0 -21 -5 -18 -22z"/>
<path d="M590 533 c-41 -64 -45 -81 -24 -104 22 -25 124 -27 148 -3 24 23 20
44 -19 102 -45 66 -66 67 -105 5z m70 -42 c15 -28 13 -31 -20 -31 -34 0 -35 2
-18 30 16 25 25 25 38 1z"/>
</g>
</svg>
