<?xml version="1.0" standalone="no"?>
<!DOCTYPE svg PUBLIC "-//W3C//DTD SVG 20010904//EN"
 "http://www.w3.org/TR/2001/REC-SVG-20010904/DTD/svg10.dtd">
<svg version="1.0" xmlns="http://www.w3.org/2000/svg"
 width="128.000000pt" height="128.000000pt" viewBox="0 0 128.000000 128.000000"
 preserveAspectRatio="xMidYMid meet">

<g transform="translate(0.000000,128.000000) scale(0.100000,-0.100000)"
fill="#000000" stroke="none">
<path d="M936 1234 c-33 -23 -44 -25 -91 -19 -90 11 -114 -9 -173 -143 -37
-83 -40 -124 -12 -152 29 -29 64 -25 105 11 l35 31 0 -41 c0 -48 26 -58 35
-13 4 15 8 38 11 51 5 23 -19 61 -38 61 -5 0 -29 -19 -53 -41 -47 -43 -75 -46
-75 -8 0 34 59 162 87 187 22 20 31 22 86 16 56 -5 65 -3 96 20 70 52 145 24
158 -60 8 -53 27 -87 56 -103 39 -21 51 -58 33 -106 -30 -85 -65 -153 -82
-159 -31 -12 -45 12 -38 65 11 85 -32 106 -85 42 -54 -65 -33 -102 21 -40 l29
32 -6 -36 c-12 -76 34 -124 94 -99 31 12 62 67 106 182 23 61 9 105 -46 149
-30 23 -39 38 -39 60 0 114 -119 177 -214 113z"/>
<path d="M385 1170 c-4 -7 -3 -16 3 -22 14 -14 47 -6 47 12 0 18 -40 26 -50
10z"/>
<path d="M465 1170 c-14 -23 13 -31 91 -28 62 2 79 6 79 18 0 12 -17 16 -82
18 -52 2 -84 -1 -88 -8z"/>
<path d="M955 1140 c-10 -32 12 -51 31 -25 17 23 14 39 -8 43 -10 2 -19 -6
-23 -18z"/>
<path d="M1029 1109 c-8 -15 -8 -24 0 -32 15 -15 46 16 38 37 -9 22 -24 20
-38 -5z"/>
<path d="M245 1090 c-4 -7 -3 -16 3 -22 14 -14 47 -6 47 12 0 18 -40 26 -50
10z"/>
<path d="M325 1089 c-15 -23 16 -30 131 -27 98 2 119 6 119 18 0 12 -21 15
-122 18 -81 2 -124 -1 -128 -9z"/>
<path d="M860 1070 c-11 -20 2 -34 26 -29 21 4 22 -3 8 -37 -18 -44 -12 -79
17 -95 34 -18 67 -3 90 43 l21 42 17 -22 c13 -18 19 -20 29 -10 29 29 13 46
-82 87 -51 23 -98 41 -104 41 -6 0 -16 -9 -22 -20z m108 -59 c12 -7 11 -14 -2
-40 -27 -51 -58 -34 -36 20 13 31 18 33 38 20z"/>
<path d="M331 943 c-95 -34 -159 -127 -177 -258 -9 -65 -28 -101 -63 -119 -16
-9 -40 -29 -55 -46 -44 -52 -37 -96 44 -283 79 -183 98 -207 164 -207 85 0
123 60 106 165 -14 85 -13 117 4 113 7 -2 64 -61 126 -133 61 -72 127 -138
146 -149 45 -24 91 -15 130 25 27 28 29 35 27 101 -2 72 -12 96 -33 83 -9 -5
-11 -24 -6 -61 3 -29 2 -64 -4 -79 -11 -28 -53 -49 -85 -41 -11 3 -78 71 -148
151 -135 154 -155 166 -192 125 -18 -19 -18 -28 -7 -113 11 -84 10 -94 -7
-117 -23 -32 -80 -39 -103 -13 -29 31 -148 318 -148 354 0 39 21 67 71 97 43
26 56 52 75 156 22 117 73 185 163 215 77 26 139 11 248 -60 65 -43 90 -47
179 -34 80 12 90 0 173 -190 39 -90 71 -173 71 -185 0 -31 -35 -60 -74 -60
-29 0 -40 8 -81 58 -64 76 -83 92 -111 92 -38 0 -56 -38 -47 -96 6 -33 13 -49
23 -49 11 0 15 12 15 49 0 28 5 51 11 53 6 2 31 -20 54 -49 66 -82 89 -98 137
-98 53 0 100 37 109 87 6 30 -5 61 -67 205 -92 213 -111 234 -203 224 -105
-12 -112 -11 -181 34 -36 23 -82 48 -103 56 -49 17 -126 16 -181 -3z"/>
<path d="M462 818 c-42 -42 17 -168 79 -168 29 0 39 15 39 60 0 83 -75 151
-118 108z m62 -53 c18 -27 22 -75 6 -75 -13 0 -40 54 -40 80 0 27 14 25 34 -5z"/>
<path d="M271 726 c-19 -49 21 -141 67 -153 48 -12 69 19 58 83 -15 78 -104
128 -125 70z m72 -45 c28 -48 19 -94 -12 -57 -15 18 -31 73 -23 80 10 11 18 6
35 -23z"/>
<path d="M486 575 c-96 -42 -118 -60 -114 -94 4 -35 38 -42 38 -8 0 14 7 27
15 31 11 4 25 -15 53 -72 32 -66 41 -77 65 -80 33 -4 67 22 67 50 0 11 -13 50
-29 88 -25 59 -27 69 -14 74 9 4 23 0 33 -9 29 -26 43 11 14 39 -22 23 -39 20
-128 -19z m58 -97 c30 -73 32 -88 10 -88 -23 0 -80 130 -62 141 21 14 24 12
52 -53z"/>
<path d="M734 326 c-8 -22 3 -49 19 -43 6 2 12 14 12 27 0 27 -22 39 -31 16z"/>
<path d="M845 189 c-15 -23 15 -30 121 -27 89 2 109 6 109 18 0 12 -20 16
-112 18 -74 2 -114 -1 -118 -9z"/>
<path d="M1105 190 c-4 -7 -3 -16 3 -22 14 -14 47 -6 47 12 0 18 -40 26 -50
10z"/>
<path d="M965 89 c-15 -23 15 -30 121 -27 89 2 109 6 109 18 0 12 -20 16 -112
18 -74 2 -114 -1 -118 -9z"/>
<path d="M1225 90 c-4 -7 -3 -16 3 -22 14 -14 47 -6 47 12 0 18 -40 26 -50 10z"/>
</g>
</svg>
