<?xml version="1.0" standalone="no"?>
<!DOCTYPE svg PUBLIC "-//W3C//DTD SVG 20010904//EN"
 "http://www.w3.org/TR/2001/REC-SVG-20010904/DTD/svg10.dtd">
<svg version="1.0" xmlns="http://www.w3.org/2000/svg"
 width="128.000000pt" height="128.000000pt" viewBox="0 0 128.000000 128.000000"
 preserveAspectRatio="xMidYMid meet">

<g transform="translate(0.000000,128.000000) scale(0.100000,-0.100000)"
fill="#000000" stroke="none">
<path d="M155 1191 c-45 -20 -70 -60 -70 -112 0 -42 5 -53 33 -81 28 -29 39
-33 83 -33 46 0 54 4 85 38 l34 37 140 0 140 0 0 -119 0 -120 -165 -3 -165 -3
-32 -33 -33 -32 0 -290 0 -290 33 -32 32 -33 370 0 370 0 32 33 33 32 0 290 0
290 -33 32 -32 33 -165 3 -165 3 0 148 c0 101 -4 151 -12 159 -8 8 -63 12
-180 12 l-168 0 -32 36 c-35 37 -92 53 -133 35z m75 -86 c26 -32 -13 -81 -47
-59 -35 22 -23 74 17 74 10 0 23 -7 30 -15z m758 -397 c17 -17 17 -519 0 -536
-17 -17 -679 -17 -696 0 -17 17 -17 519 0 536 17 17 679 17 696 0z"/>
<path d="M435 551 c-45 -20 -70 -60 -70 -112 0 -42 5 -53 33 -81 28 -28 39
-33 82 -33 43 0 54 5 82 33 28 28 33 39 33 82 0 42 -5 54 -31 81 -33 33 -92
46 -129 30z m75 -86 c15 -18 10 -45 -12 -59 -35 -22 -74 27 -48 59 16 19 44
19 60 0z"/>
<path d="M755 551 c-45 -20 -70 -60 -70 -112 0 -42 5 -53 33 -81 28 -28 39
-33 82 -33 43 0 54 5 82 33 28 28 33 39 33 82 0 42 -5 54 -31 81 -33 33 -92
46 -129 30z m75 -86 c26 -32 -13 -81 -47 -59 -23 14 -28 41 -13 59 16 19 44
19 60 0z"/>
</g>
</svg>
