<?xml version="1.0" standalone="no"?>
<!DOCTYPE svg PUBLIC "-//W3C//DTD SVG 20010904//EN"
 "http://www.w3.org/TR/2001/REC-SVG-20010904/DTD/svg10.dtd">
<svg version="1.0" xmlns="http://www.w3.org/2000/svg"
 width="128.000000pt" height="128.000000pt" viewBox="0 0 128.000000 128.000000"
 preserveAspectRatio="xMidYMid meet">

<g transform="translate(0.000000,128.000000) scale(0.100000,-0.100000)"
fill="#000000" stroke="none">
<path d="M613 1180 c-92 -67 -149 -101 -233 -136 -75 -32 -115 -55 -121 -68
-10 -27 -81 -491 -80 -531 0 -27 74 -301 82 -309 2 -2 58 -31 125 -64 l120
-60 180 19 c98 10 193 21 211 24 28 5 40 19 99 117 l67 111 22 176 21 176 -41
198 -41 199 -143 119 c-79 65 -144 119 -145 119 -1 0 -56 -40 -123 -90z m105
-93 l-3 -43 -89 21 -88 21 88 67 89 66 3 -45 c2 -24 2 -63 0 -87z m272 -73 c0
-2 -25 -54 -56 -116 l-56 -111 -30 54 c-94 171 -98 181 -98 284 l0 96 120
-101 c66 -56 120 -103 120 -106z m-377 23 l89 -22 -113 -95 c-62 -52 -118 -98
-125 -102 -7 -5 -40 25 -87 76 l-76 83 92 41 c51 22 101 40 112 41 11 0 60
-10 108 -22z m182 -160 c36 -68 54 -112 48 -118 -11 -11 -376 -169 -381 -165
-1 2 1 46 4 97 l7 94 126 106 c69 58 129 103 132 100 4 -3 33 -55 64 -114z
m244 -62 c16 -77 28 -141 26 -143 -3 -4 -154 78 -158 86 -2 4 18 54 46 112 27
58 51 101 53 95 2 -5 17 -73 33 -150z m-670 43 l73 -77 -7 -104 -7 -103 -109
-51 c-60 -28 -109 -49 -109 -47 0 8 61 410 66 437 3 15 9 27 12 25 4 -2 40
-38 81 -80z m578 -337 c41 -112 73 -204 71 -206 -6 -7 -428 102 -442 114 -7 6
-34 38 -60 71 l-48 60 49 21 c26 11 113 49 193 83 80 35 149 63 154 62 5 -1
42 -93 83 -205z m117 109 c10 -10 -12 -248 -24 -255 -5 -3 -81 194 -128 332
-4 12 132 -58 152 -77z m-570 -149 l56 -70 0 -105 c0 -58 -3 -107 -8 -110 -4
-2 -55 -9 -112 -16 -58 -6 -115 -13 -126 -15 -20 -4 -25 7 -59 131 -21 74 -36
136 -34 138 3 3 217 112 225 115 1 1 27 -30 58 -68z m523 -204 c5 -6 -94 -174
-107 -182 -4 -3 -34 4 -66 15 -33 10 -105 33 -161 50 l-103 31 0 93 c0 51 2
95 5 98 6 6 422 -96 432 -105z m-319 -153 c67 -21 120 -40 116 -43 -3 -3 -72
-13 -152 -22 l-147 -16 -95 48 -95 47 70 7 c39 3 75 8 80 10 35 12 116 1 223
-31z"/>
<path d="M296 873 c-12 -12 -6 -33 9 -33 8 0 15 6 15 14 0 17 -14 28 -24 19z"/>
<path d="M285 809 c-14 -37 -32 -175 -24 -183 14 -15 19 -4 35 89 10 60 12 91
5 98 -7 7 -12 6 -16 -4z"/>
</g>
</svg>
