<?xml version="1.0" standalone="no"?>
<!DOCTYPE svg PUBLIC "-//W3C//DTD SVG 20010904//EN"
 "http://www.w3.org/TR/2001/REC-SVG-20010904/DTD/svg10.dtd">
<svg version="1.0" xmlns="http://www.w3.org/2000/svg"
 width="128.000000pt" height="128.000000pt" viewBox="0 0 128.000000 128.000000"
 preserveAspectRatio="xMidYMid meet">

<g transform="translate(0.000000,128.000000) scale(0.100000,-0.100000)"
fill="#000000" stroke="none">
<path d="M505 1265 c-33 -7 -76 -20 -96 -28 -32 -13 -37 -13 -45 1 -15 23 -44
8 -44 -22 0 -16 -8 -30 -22 -37 -13 -7 -40 -25 -60 -41 -35 -27 -41 -29 -73
-18 -63 21 -88 -6 -36 -38 l30 -18 -25 -32 c-22 -27 -28 -30 -44 -20 -31 20
-48 -4 -27 -36 16 -23 15 -28 -9 -79 -93 -205 -63 -458 78 -645 36 -47 48 -72
48 -98 0 -40 25 -57 45 -30 11 15 17 13 66 -19 29 -19 57 -35 61 -35 5 0 6
-11 2 -24 -7 -29 16 -40 49 -25 17 8 44 6 100 -5 137 -29 270 -16 391 38 59
26 59 26 73 6 15 -21 48 -27 58 -9 4 5 -1 19 -12 31 -18 20 -17 21 21 53 l40
33 27 -20 c29 -22 59 -19 59 6 0 7 -11 21 -25 30 l-26 17 21 29 c11 15 20 33
20 38 0 20 -31 21 -50 0 l-19 -21 -12 29 c-13 33 -14 64 -4 111 6 28 5 33 -12
33 -11 0 -25 -11 -31 -24 -6 -13 -26 -36 -46 -51 -33 -25 -37 -26 -58 -11 -12
9 -33 16 -45 16 -32 0 -30 -34 4 -49 l26 -12 -23 -16 c-23 -16 -25 -15 -56 21
-18 21 -43 62 -55 92 -15 36 -28 54 -40 54 -29 0 -31 -17 -10 -65 l20 -44 -35
-35 c-22 -22 -32 -40 -28 -50 9 -23 24 -20 56 11 l28 27 28 -28 c18 -19 23
-30 15 -33 -15 -6 -17 -39 -3 -48 13 -8 57 16 135 75 36 27 67 50 69 50 9 0
37 -93 30 -99 -5 -4 -28 -22 -51 -40 l-42 -32 -16 31 c-9 18 -23 30 -36 30
-27 0 -35 -27 -15 -49 25 -28 20 -38 -31 -55 -65 -22 -74 -20 -105 24 -15 22
-34 40 -42 40 -23 0 -25 -25 -5 -56 10 -16 19 -32 19 -36 0 -5 -26 -8 -57 -8
-64 0 -183 19 -183 29 0 4 7 17 16 29 32 45 -16 59 -53 15 l-22 -28 -52 28
c-29 16 -67 41 -85 55 -28 22 -31 28 -21 49 l11 24 38 -38 c36 -35 39 -36 55
-21 15 16 14 20 -25 62 -34 37 -42 53 -42 84 0 37 2 38 43 48 33 7 43 14 45
33 4 23 2 24 -35 17 -21 -3 -66 -9 -101 -13 -57 -5 -63 -8 -60 -27 2 -15 11
-22 30 -24 25 -3 28 -7 28 -40 0 -20 -9 -48 -19 -61 l-19 -25 -25 29 c-14 17
-36 49 -48 73 l-24 44 22 15 c41 28 18 67 -25 44 -18 -10 -21 -6 -33 42 -15
56 -19 230 -6 243 4 4 13 2 19 -4 15 -15 45 -15 54 0 4 7 -7 24 -29 42 l-35
31 20 53 c25 67 98 177 118 177 8 0 21 -11 28 -25 13 -23 12 -29 -17 -75 -35
-55 -38 -70 -16 -79 16 -6 18 -4 68 64 18 25 42 46 54 48 12 2 27 10 34 18 17
21 -1 36 -37 32 -23 -2 -33 3 -51 30 -13 18 -23 34 -23 36 0 1 20 17 45 35
l45 32 29 -22 c31 -23 61 -20 61 6 0 9 -7 18 -15 21 -41 16 -3 37 109 60 67
14 70 14 92 -7 12 -11 25 -32 28 -45 7 -27 34 -32 43 -8 3 10 1 30 -5 47 l-11
29 42 -6 c23 -4 59 -11 80 -17 l37 -10 -30 -25 c-16 -14 -30 -32 -30 -39 0
-28 23 -26 66 5 44 32 68 34 103 11 11 -7 11 -13 -3 -32 -9 -13 -16 -31 -16
-41 0 -25 37 -23 50 2 6 11 19 20 28 20 27 0 152 -138 152 -167 0 -6 -16 -20
-35 -32 -22 -13 -35 -28 -35 -41 0 -26 20 -25 64 1 l36 21 11 -29 c17 -45 39
-145 39 -179 0 -19 -6 -34 -15 -38 -20 -7 -19 -33 1 -44 14 -8 14 -15 0 -73
-16 -70 -14 -79 14 -79 25 0 39 50 46 165 7 105 -10 203 -51 294 -21 47 -25
63 -16 79 18 33 14 62 -9 62 -10 0 -23 -7 -27 -14 -6 -12 -19 -3 -56 39 -43
49 -45 54 -27 60 11 3 20 15 20 25 0 21 -31 31 -72 23 -21 -4 -49 5 -111 36
-133 67 -282 87 -422 56z"/>
<path d="M486 1134 c-4 -10 -2 -22 3 -27 14 -14 43 0 39 20 -4 24 -34 28 -42
7z"/>
<path d="M585 1140 c-3 -6 -5 -20 -3 -33 1 -12 -3 -36 -11 -53 -18 -45 -11
-89 14 -89 14 0 21 8 23 25 5 44 11 55 24 42 7 -7 22 -12 35 -12 31 0 30 27
-2 52 -13 10 -30 31 -37 45 -15 30 -33 40 -43 23z"/>
<path d="M740 1036 c-5 -15 -20 -40 -32 -56 -17 -24 -19 -33 -10 -42 9 -9 17
-10 30 -2 27 17 63 76 60 98 -5 31 -36 32 -48 2z"/>
<path d="M451 1010 c-12 -17 -40 -41 -61 -55 -62 -39 -48 -78 17 -47 29 14 33
13 61 -7 59 -41 96 -15 43 30 -32 26 -33 28 -17 50 39 56 -2 83 -43 29z"/>
<path d="M887 1003 c-3 -5 -8 -23 -12 -40 -7 -36 -16 -41 -35 -19 -14 18 -40
10 -40 -12 0 -9 19 -36 43 -60 39 -40 41 -44 25 -56 -27 -20 -23 -46 7 -46 34
0 120 44 139 71 26 38 -5 69 -34 33 -27 -32 -47 -35 -63 -10 -14 21 -14 28 0
68 9 24 14 52 10 61 -6 17 -32 23 -40 10z"/>
<path d="M983 994 c-3 -8 -1 -20 6 -27 14 -14 47 15 37 32 -10 16 -36 13 -43
-5z"/>
<path d="M604 895 c-4 -9 -2 -21 4 -27 15 -15 44 -1 40 19 -4 23 -36 29 -44 8z"/>
<path d="M304 845 c-4 -9 -2 -21 4 -27 15 -15 44 -1 40 19 -4 23 -36 29 -44 8z"/>
<path d="M429 828 c0 -2 -1 -37 -2 -78 -1 -64 1 -75 16 -78 12 -2 21 6 28 26
8 24 17 31 50 36 34 6 40 10 37 29 -3 19 -8 22 -38 19 -28 -2 -37 1 -45 20 -8
19 -43 39 -46 26z"/>
<path d="M654 818 c-4 -7 5 -22 23 -37 17 -14 38 -41 47 -58 18 -36 28 -40 45
-19 10 11 8 23 -8 54 -29 57 -88 91 -107 60z"/>
<path d="M189 736 c-10 -24 -20 -67 -22 -94 -3 -42 -9 -56 -35 -80 -60 -56
-28 -80 41 -31 32 22 61 33 97 37 45 4 51 7 48 26 -3 18 -9 21 -56 21 -49 -1
-53 1 -48 20 3 11 6 28 6 37 0 14 11 18 58 20 49 3 57 6 57 23 0 16 -8 21 -41
23 -32 2 -43 8 -47 23 -9 34 -37 22 -58 -25z"/>
<path d="M1090 755 c-14 -15 -35 -25 -51 -25 -40 0 -59 -10 -59 -31 0 -16 8
-19 50 -19 54 0 61 -10 41 -64 -8 -18 -6 -28 5 -37 26 -21 47 12 52 83 2 35 9
69 14 75 13 16 3 43 -15 43 -7 0 -24 -11 -37 -25z"/>
<path d="M834 705 c-4 -9 -2 -21 4 -27 15 -15 44 -1 40 19 -4 23 -36 29 -44 8z"/>
<path d="M580 671 c0 -10 14 -35 30 -56 17 -21 30 -41 30 -45 0 -3 -11 -16
-25 -28 -51 -44 -14 -68 43 -28 22 15 52 26 70 26 25 0 32 4 32 19 0 19 -18
31 -49 31 -9 0 -34 23 -55 50 -39 51 -76 67 -76 31z"/>
<path d="M409 634 c-9 -11 -9 -18 -1 -26 14 -14 42 -3 42 16 0 20 -27 27 -41
10z"/>
<path d="M950 635 c-10 -11 -10 -19 -2 -27 15 -15 44 -2 40 19 -4 23 -22 27
-38 8z"/>
<path d="M855 610 c-3 -5 -3 -20 0 -31 4 -12 -1 -41 -10 -66 -13 -33 -14 -48
-6 -56 31 -31 84 76 65 131 -10 28 -37 41 -49 22z"/>
<path d="M500 555 c-10 -26 -24 -32 -35 -15 -9 15 -35 12 -42 -6 -4 -10 9 -30
34 -57 22 -23 43 -50 46 -59 4 -10 16 -18 27 -18 25 0 28 45 4 71 -15 16 -15
20 0 41 9 12 16 33 16 45 0 33 -37 31 -50 -2z"/>
<path d="M1007 534 c-14 -14 -7 -44 11 -44 9 0 31 -8 47 -18 34 -21 55 -18 55
8 0 30 -92 75 -113 54z"/>
<path d="M244 505 c-4 -9 -2 -21 4 -27 15 -15 44 -1 40 19 -4 23 -36 29 -44 8z"/>
<path d="M920 420 c0 -16 5 -21 23 -18 12 2 22 10 22 18 0 8 -10 16 -22 18
-18 3 -23 -2 -23 -18z"/>
<path d="M595 370 c-9 -15 4 -30 26 -30 12 0 19 7 19 20 0 21 -33 29 -45 10z"/>
<path d="M1164 365 c-4 -9 -2 -21 4 -27 15 -15 44 -1 40 19 -4 23 -36 29 -44
8z"/>
<path d="M354 315 c-7 -18 3 -35 22 -35 20 0 30 30 13 41 -20 12 -29 11 -35
-6z"/>
<path d="M461 311 c-25 -16 -6 -44 46 -70 35 -17 53 -32 53 -44 0 -29 19 -57
38 -57 15 0 17 11 18 80 0 64 -2 80 -14 80 -8 0 -20 -8 -27 -17 -11 -15 -16
-14 -57 10 -27 15 -49 22 -57 18z"/>
</g>
</svg>
