<?xml version="1.0" standalone="no"?>
<!DOCTYPE svg PUBLIC "-//W3C//DTD SVG 20010904//EN"
 "http://www.w3.org/TR/2001/REC-SVG-20010904/DTD/svg10.dtd">
<svg version="1.0" xmlns="http://www.w3.org/2000/svg"
 width="128.000000pt" height="128.000000pt" viewBox="0 0 128.000000 128.000000"
 preserveAspectRatio="xMidYMid meet">

<g transform="translate(0.000000,128.000000) scale(0.100000,-0.100000)"
fill="#000000" stroke="none">
<path d="M72 1048 c-14 -14 -16 -90 -2 -138 5 -20 25 -61 44 -93 l34 -57 -33
26 -34 25 -11 -21 c-26 -49 18 -142 102 -215 27 -24 32 -31 15 -21 -55 34 -76
-8 -36 -73 29 -47 52 -65 144 -112 86 -44 128 -78 151 -121 8 -16 20 -28 27
-28 21 0 95 82 116 130 11 25 21 65 21 90 0 93 -85 219 -214 317 -83 64 -199
176 -253 246 -47 61 -52 64 -71 45z m278 -298 c162 -131 221 -213 222 -308 0
-55 -25 -113 -65 -150 l-25 -24 -37 41 c-23 25 -70 57 -122 83 -78 39 -153 97
-153 118 0 5 16 2 35 -6 43 -17 89 -18 103 -1 9 10 -7 25 -65 67 -84 61 -128
109 -139 155 l-7 30 24 -21 c31 -29 91 -64 107 -64 23 0 12 30 -29 82 -53 67
-97 155 -105 210 l-6 43 82 -88 c46 -49 127 -124 180 -167z"/>
<path d="M1137 1003 c-54 -69 -169 -182 -252 -245 -87 -66 -152 -140 -185
-211 -36 -74 -38 -133 -9 -197 21 -48 95 -130 116 -130 7 0 19 12 27 28 22 43
65 77 146 117 107 53 170 118 170 175 0 29 -23 35 -57 14 -15 -10 -2 7 29 37
54 51 97 123 98 162 0 10 -5 27 -10 38 -11 19 -12 19 -45 -7 l-35 -26 35 58
c40 66 55 112 55 167 0 40 -14 77 -30 77 -5 0 -29 -26 -53 -57z m49 -44 c-8
-53 -54 -142 -105 -207 -41 -52 -52 -82 -28 -82 15 0 75 36 105 63 22 20 22
20 22 0 0 -44 -75 -123 -178 -187 -36 -22 -41 -30 -32 -42 16 -18 61 -18 105
0 92 39 -11 -58 -119 -112 -51 -26 -98 -58 -121 -83 l-37 -41 -25 24 c-40 37
-65 95 -65 150 1 95 65 184 221 307 48 37 125 109 172 160 46 50 86 91 88 91
2 0 1 -18 -3 -41z"/>
</g>
</svg>
